<?xml version="1.0" encoding="UTF-8" standalone="no"?><!DOCTYPE svg PUBLIC "-//W3C//DTD SVG 1.1//EN" "http://www.w3.org/Graphics/SVG/1.1/DTD/svg11.dtd"><svg width="100%" height="100%" viewBox="0 0 137 40" version="1.1" xmlns="http://www.w3.org/2000/svg" xmlns:xlink="http://www.w3.org/1999/xlink" xml:space="preserve" xmlns:serif="http://www.serif.com/" style="fill-rule:evenodd;clip-rule:evenodd;stroke-linejoin:round;stroke-miterlimit:2;"><g><g id="docs"><g id="doc3"><path d="M31.952,5.537c-0.816,-0.956 -5.036,-5.255 -5.498,-5.499l-14.482,-0.038c-1.218,0 -2.208,0.989 -2.208,2.208l0,27.293c0,1.218 0.99,2.208 2.208,2.208l17.715,-0c1.219,-0 2.208,-0.99 2.208,-2.208l0.057,-23.964Z" style="fill:#bebebe;"/><clipPath id="_clip1"><path d="M31.952,5.537c-0.816,-0.956 -5.036,-5.255 -5.498,-5.499l-14.482,-0.038c-1.218,0 -2.208,0.989 -2.208,2.208l0,27.293c0,1.218 0.99,2.208 2.208,2.208l17.715,-0c1.219,-0 2.208,-0.99 2.208,-2.208l0.057,-23.964Z"/></clipPath><g clip-path="url(#_clip1)"><path d="M26.447,0.023c0,0 -0.01,2.259 -0.017,3.854c-0.003,0.857 0.68,1.559 1.537,1.577c1.617,0.035 3.925,0.086 3.925,0.086c-0.392,-2.591 -2.212,-4.427 -5.445,-5.517Z" style="fill:#dfdfdf;"/><g id="forms"><path d="M13.279,10.249l-0.001,1.373l16.492,0.001l0.001,-1.376l-16.492,0.002Z" style="fill:#dfdfdf;"/><path d="M13.308,13.802l-0.002,1.372l16.492,0.002l0.002,-1.376l-16.492,0.002Z" style="fill:#dfdfdf;"/><path d="M13.278,17.239l-0.001,1.287l16.492,0.001l0.002,-1.289l-16.493,0.001Z" style="fill:#dfdfdf;"/><path d="M13.239,20.659l-0.002,1.391l16.492,0.002l0.002,-1.394l-16.492,0.001Z" style="fill:#dfdfdf;"/><path d="M22.268,24.2l-0.001,1.349l7.461,0.001l0.001,-1.352l-7.461,0.002Z" style="fill:#dfdfdf;"/><path d="M12.367,27.718l-0.001,1.174l17.372,0.002l0.002,-1.178l-17.373,0.002Z" style="fill:#dfdfdf;"/></g><path d="M12.635,31.631c11.301,-1.843 19.222,-11.072 19.259,-22.004l5.354,24.434c0,-0 -18.223,2.924 -18.628,2.744c-0.405,-0.18 -5.985,-5.174 -5.985,-5.174Z" style="fill-opacity:0.13;"/></g></g><g id="doc2"><path d="M26.949,9.576c-0.817,-0.955 -5.037,-5.255 -5.499,-5.498l-14.481,-0.039c-1.219,0 -2.208,0.99 -2.208,2.208l-0,27.293c-0,1.219 0.989,2.208 2.208,2.208l17.715,0c1.218,0 2.208,-0.989 2.208,-2.208l0.057,-23.964Z" style="fill:#00b378;"/><clipPath id="_clip2"><path d="M26.949,9.576c-0.817,-0.955 -5.037,-5.255 -5.499,-5.498l-14.481,-0.039c-1.219,0 -2.208,0.99 -2.208,2.208l-0,27.293c-0,1.219 0.989,2.208 2.208,2.208l17.715,0c1.218,0 2.208,-0.989 2.208,-2.208l0.057,-23.964Z"/></clipPath><g clip-path="url(#_clip2)"><path d="M21.444,4.063c-0,-0 -0.01,2.259 -0.017,3.854c-0.004,0.856 0.68,1.558 1.536,1.577c1.617,0.035 3.926,0.085 3.926,0.085c-0.392,-2.591 -2.213,-4.427 -5.445,-5.516Z" style="fill:#59cea7;"/><g id="forms1" serif:id="forms"><path d="M8.44,14.365l-0.001,1.373l16.492,0.002l0.002,-1.376l-16.493,0.001Z" style="fill:#59cea7;"/><path d="M8.469,17.918l-0.002,1.373l16.492,0.001l0.002,-1.375l-16.492,0.001Z" style="fill:#59cea7;"/><path d="M8.44,21.356l-0.002,1.286l16.492,0.002l0.002,-1.29l-16.492,0.002Z" style="fill:#59cea7;"/><path d="M8.4,24.776l-0.002,1.391l16.493,0.001l0.001,-1.394l-16.492,0.002Z" style="fill:#59cea7;"/><path d="M17.429,28.317l-0.001,1.348l7.462,0.002l0,-1.352l-7.461,0.002Z" style="fill:#59cea7;"/><path d="M7.529,31.834l-0.002,1.175l17.372,0.001l0.002,-1.177l-17.372,0.001Z" style="fill:#59cea7;"/></g><path d="M7.631,35.67c11.302,-1.842 19.222,-11.071 19.259,-22.003l5.355,24.433c-0,0 -18.224,2.925 -18.629,2.745c-0.405,-0.18 -5.985,-5.175 -5.985,-5.175Z" style="fill-opacity:0.13;"/></g></g><g id="doc1"><path d="M22.188,13.816c-0.816,-0.955 -5.036,-5.255 -5.499,-5.499l-14.481,-0.038c-1.219,0 -2.208,0.99 -2.208,2.208l0,27.293c0,1.219 0.989,2.208 2.208,2.208l17.715,0c1.218,0 2.208,-0.989 2.208,-2.208l0.057,-23.964Z" style="fill:#0071af;"/><clipPath id="_clip3"><path d="M22.188,13.816c-0.816,-0.955 -5.036,-5.255 -5.499,-5.499l-14.481,-0.038c-1.219,0 -2.208,0.99 -2.208,2.208l0,27.293c0,1.219 0.989,2.208 2.208,2.208l17.715,0c1.218,0 2.208,-0.989 2.208,-2.208l0.057,-23.964Z"/></clipPath><g clip-path="url(#_clip3)"><path d="M16.683,8.303c0,-0 -0.01,2.259 -0.017,3.854c-0.004,0.856 0.68,1.558 1.536,1.577c1.617,0.035 3.926,0.085 3.926,0.085c-0.392,-2.591 -2.212,-4.427 -5.445,-5.516Z" style="fill:#5ca4cc;"/><g id="forms2" serif:id="forms"><path d="M2.902,16.532l-0.001,1.373l16.492,0.001l0.001,-1.376l-16.492,0.002Z" style="fill:#5ca4cc;"/><path d="M2.902,19.278l-0.002,1.373l16.492,0.002l0.002,-1.376l-16.492,0.001Z" style="fill:#5ca4cc;"/><path d="M2.901,22.025l-0.001,1.372l16.492,0.002l0.001,-1.376l-16.492,0.002Z" style="fill:#5ca4cc;"/><path d="M2.903,25.569l-0.002,5.485l16.492,0.006l0.002,-5.498l-16.492,0.007Z" style="fill:#5ca4cc;"/><path d="M2.9,33.227l-0.001,1.17l7.462,0.001l0,-1.173l-7.461,0.002Z" style="fill:#5ca4cc;"/><path d="M2.768,35.968l-0.002,1.175l16.625,0.001l0.002,-1.177l-16.625,0.001Z" style="fill:#5ca4cc;"/></g><path d="M2.871,39.91c11.301,-1.842 19.221,-11.071 19.258,-22.003l5.355,24.433c-0,0 -18.224,2.925 -18.629,2.745c-0.405,-0.18 -5.984,-5.175 -5.984,-5.175Z" style="fill-opacity:0.13;"/></g><path d="M3.366,8.298l0.115,5.53l1.582,-1.028l0.385,-0.002l1.535,1.053l-0,-5.599l-3.617,0.046Z" style="fill:#ec9090;"/><g id="_-" serif:id="@"><circle cx="11.166" cy="25.152" r="5.712" style="fill:#0071af;"/><text x="6.592px" y="28px" style="font-family:'MSReferenceSansSerif', 'MS Reference Sans Serif', sans-serif;font-size:9.301px;fill:#5ca4cc;">@</text></g></g></g><g><text x="60.565px" y="31.924px" style="font-family:'Arial-BoldMT', 'Arial', sans-serif;font-weight:700;font-size:33.333px;fill:#f0f0f0;">MDA</text><path d="M50.18,3.19c-0,-0.366 -0.297,-0.664 -0.663,-0.664c-0.366,0 -0.664,0.298 -0.664,0.664l0,33.313c0,0.367 0.298,0.664 0.664,0.664c0.366,-0 0.663,-0.297 0.663,-0.664l-0,-33.313Z" style="fill:#ebebeb;"/></g></g></svg>